<svg xmlns="http://www.w3.org/2000/svg" width="400" height="400" viewBox="0 0 400 400">
<g>
<path d="M 368.65 131.25 C369.01,138.26 369.01,144.00 368.65,144.00 C368.29,144.00 367.99,143.44 367.98,142.75 C367.87,134.79 365.55,122.23 362.96,115.51 C357.90,102.44 353.17,93.19 349.41,89.03 C346.33,85.62 346.02,84.83 347.03,82.95 C348.60,80.00 347.03,78.57 343.83,80.03 C341.60,81.05 340.57,80.60 333.59,75.60 C329.33,72.54 324.14,69.58 322.06,69.02 C319.99,68.46 316.31,66.51 313.89,64.68 C310.28,61.95 308.81,61.43 305.64,61.76 C303.51,61.98 298.33,61.24 294.14,60.13 C277.38,55.68 240.06,54.65 215.00,57.95 C193.56,60.77 162.91,67.49 155.50,70.99 C154.40,71.51 149.90,73.34 145.50,75.05 C137.05,78.33 113.25,90.50 106.50,94.99 C98.38,100.39 87.24,105.74 82.69,106.42 C79.91,106.84 78.00,106.74 78.00,106.18 C78.00,104.65 85.53,98.29 93.03,93.48 C98.95,89.68 101.61,87.00 99.44,87.00 C98.87,87.00 93.35,90.03 86.75,93.96 C84.69,95.19 83.00,95.99 83.00,95.74 C83.00,94.40 106.65,81.63 120.50,75.50 C122.70,74.53 126.30,72.92 128.50,71.93 C143.35,65.22 170.30,56.17 181.83,54.02 C184.76,53.47 187.47,52.83 187.85,52.59 C188.24,52.35 194.17,51.45 201.03,50.59 C207.89,49.72 217.10,48.47 221.50,47.81 C226.09,47.12 240.16,46.60 254.50,46.60 C280.81,46.59 287.09,47.31 303.50,52.20 C326.24,58.98 348.70,75.08 357.83,91.16 C364.54,102.97 367.84,115.21 368.65,131.25 ZM 147.08 189.50 C146.49,191.70 145.52,194.18 144.93,195.00 C141.07,200.44 156.16,162.94 166.51,141.38 C181.78,109.60 190.61,95.92 195.78,96.04 C196.80,96.06 196.28,96.62 194.50,97.40 C192.85,98.13 190.66,99.67 189.63,100.83 C187.79,102.89 187.80,102.98 190.34,105.99 C193.12,109.29 193.04,110.24 189.49,116.00 C188.31,117.93 183.14,127.38 178.02,137.00 C172.90,146.62 167.68,156.14 166.42,158.14 C165.15,160.14 163.49,163.29 162.71,165.14 C160.90,169.45 156.23,175.00 154.41,175.00 C153.63,175.00 153.10,175.34 153.22,175.75 C153.34,176.16 152.26,178.52 150.80,181.00 C149.35,183.48 147.68,187.30 147.08,189.50 ZM 46.97 174.35 C48.33,175.26 48.85,176.00 48.13,176.00 C47.41,176.00 43.88,173.07 40.30,169.49 L 33.79 162.97 L 34.15 155.24 C34.55,146.57 37.36,139.58 44.18,130.29 C48.40,124.55 63.78,108.99 68.50,105.71 C70.15,104.56 66.22,108.69 59.77,114.89 C50.73,123.58 47.80,127.03 47.01,129.95 C46.45,132.03 45.12,134.84 44.06,136.20 C41.15,139.90 36.99,149.84 35.89,155.71 C35.12,159.81 35.22,161.53 36.37,163.71 C37.91,166.65 42.82,171.57 46.97,174.35 ZM 107.22 88.75 C106.48,91.14 111.48,89.92 120.00,85.62 C128.07,81.55 131.12,78.23 126.35,78.72 C123.34,79.03 107.68,87.24 107.22,88.75 ZM 321.41 217.72 C319.91,220.09 318.11,220.44 317.36,218.51 C316.45,216.13 319.56,213.16 321.22,214.82 C322.11,215.71 322.16,216.52 321.41,217.72 ZM 285.75 52.31 C286.71,52.56 287.73,52.81 288.00,52.87 C288.27,52.93 289.55,52.69 290.83,52.35 C293.96,51.51 291.69,50.04 287.25,50.02 C283.81,50.00 282.80,51.54 285.75,52.31 ZM 309.00 58.56 C309.00,60.26 311.58,60.49 312.57,58.89 C313.32,57.67 311.08,55.83 309.80,56.62 C309.36,56.90 309.00,57.77 309.00,58.56 Z" fill="rgb(245,165,207)"/>
<path d="M 149.29 353.97 C136.15,355.44 112.00,354.85 112.00,353.06 C112.00,352.60 110.31,351.91 108.25,351.53 C96.72,349.40 82.44,340.75 78.85,333.71 C77.75,331.54 75.78,328.81 74.47,327.63 C70.98,324.49 70.86,320.20 74.19,317.71 L 76.88 315.70 L 81.75 317.80 C90.90,321.73 104.68,323.35 123.00,322.65 C145.65,321.78 154.67,319.87 173.50,311.95 C178.45,309.86 184.06,307.66 185.97,307.05 C187.88,306.45 190.62,304.82 192.07,303.44 C193.51,302.05 196.00,300.70 197.59,300.42 C202.58,299.54 212.30,294.51 217.22,290.24 C219.82,287.99 222.97,285.83 224.22,285.43 C225.48,285.04 228.74,283.20 231.49,281.36 C234.23,279.51 237.02,278.00 237.68,278.00 C238.34,278.00 239.47,277.21 240.19,276.24 C240.91,275.27 244.09,272.73 247.25,270.58 C250.41,268.43 253.00,266.31 253.00,265.87 C253.00,265.42 255.47,263.24 258.49,261.01 C261.51,258.77 267.89,253.12 272.65,248.43 C277.42,243.75 281.84,239.60 282.48,239.21 C283.11,238.82 287.94,233.55 293.20,227.50 C302.20,217.15 314.73,199.74 319.99,190.28 C321.72,187.17 322.91,186.10 324.49,186.23 C326.17,186.37 326.55,186.92 326.21,188.70 C325.86,190.49 326.22,191.00 327.81,191.00 C330.40,191.00 333.20,188.26 332.78,186.13 C332.56,185.02 331.63,184.60 329.85,184.81 C327.39,185.09 327.21,184.81 326.56,179.60 C325.82,173.72 327.92,167.00 330.48,167.00 C331.89,167.00 333.28,174.14 333.17,180.75 C333.11,183.90 333.48,185.00 334.60,185.00 C337.33,185.00 342.44,181.85 347.24,177.19 C350.93,173.61 352.25,172.85 353.19,173.79 C354.69,175.29 354.76,184.38 353.28,186.17 C352.68,186.90 351.21,190.65 350.02,194.50 C347.33,203.20 347.16,203.61 341.94,214.00 C335.88,226.06 324.72,242.37 317.91,249.09 C314.71,252.25 311.45,256.33 310.66,258.16 C307.85,264.70 275.21,295.19 259.35,306.10 C257.06,307.68 255.02,309.39 254.84,309.89 C254.18,311.66 238.45,321.37 224.42,328.66 C211.05,335.61 189.23,344.86 181.12,347.01 C162.76,351.88 157.28,353.08 149.29,353.97 ZM 156.00 290.14 C148.51,293.65 136.07,292.96 129.98,288.70 C124.62,284.94 122.53,278.33 125.47,274.44 C126.28,273.37 126.95,271.49 126.97,270.26 C127.00,268.33 129.99,258.72 140.15,228.00 C142.72,220.23 149.65,201.66 150.89,199.23 C151.38,198.28 152.84,195.06 154.14,192.08 C156.84,185.86 161.33,179.81 163.98,178.82 C165.31,178.32 166.59,179.15 168.89,182.01 C170.60,184.14 172.00,186.55 172.00,187.37 C172.00,188.19 172.72,189.58 173.60,190.46 C174.85,191.71 174.94,192.36 174.02,193.48 C173.37,194.26 173.12,195.80 173.47,196.90 C173.82,198.00 173.40,200.25 172.55,201.90 C171.70,203.55 170.97,206.39 170.94,208.20 C170.90,210.02 170.29,214.20 169.58,217.50 C168.88,220.80 168.21,227.46 168.10,232.30 C167.96,238.14 166.93,244.92 165.03,252.40 C162.18,263.58 160.22,275.32 159.75,284.00 C159.52,288.07 159.16,288.66 156.00,290.14 ZM 64.39 175.42 C63.93,176.61 62.34,177.00 57.89,177.00 C54.65,177.00 51.99,176.66 51.98,176.25 C51.96,175.84 50.12,174.15 47.88,172.50 C41.10,167.51 38.48,160.11 41.08,153.32 C41.67,151.77 42.69,148.44 43.34,145.91 C44.60,140.99 50.39,133.48 60.00,124.27 C65.39,119.11 69.82,116.92 73.19,117.77 C75.08,118.25 77.03,122.90 76.50,125.68 C76.31,126.68 76.12,127.87 76.08,128.32 C76.03,128.77 75.10,128.85 74.00,128.50 C72.67,128.08 72.00,128.32 72.00,129.23 C72.00,129.98 71.44,131.16 70.75,131.85 C69.07,133.53 69.14,135.26 70.94,136.64 C72.19,137.60 72.21,138.04 71.09,139.39 C70.36,140.28 69.18,141.00 68.47,141.00 C67.76,141.00 66.01,142.46 64.57,144.25 C63.14,146.04 61.46,148.12 60.83,148.87 C59.97,149.90 59.98,151.05 60.84,153.45 C61.48,155.20 62.00,157.86 62.00,159.35 C62.00,160.84 62.67,163.68 63.50,165.65 C65.09,169.45 65.39,172.81 64.39,175.42 ZM 311.49 220.90 L 310.77 225.30 L 314.51 224.69 C318.94,223.97 321.31,222.05 325.15,216.05 C328.53,210.78 328.70,208.92 325.96,207.20 C324.22,206.12 323.50,206.22 321.21,207.88 C315.56,211.94 312.21,216.43 311.49,220.90 ZM 81.68 296.40 C80.89,298.44 76.00,298.56 76.00,296.54 C76.00,294.60 79.25,292.92 80.95,293.97 C81.69,294.42 82.01,295.52 81.68,296.40 Z" fill="rgb(250,26,84)"/>
<path d="M 46.97 174.35 C42.82,171.57 37.91,166.65 36.37,163.71 C35.22,161.53 35.12,159.81 35.89,155.71 C36.99,149.84 41.15,139.90 44.06,136.20 C45.12,134.84 46.45,132.03 47.01,129.95 C47.80,127.03 50.73,123.58 59.77,114.89 C65.53,109.36 69.28,105.47 68.84,105.51 C69.23,105.24 69.56,105.03 69.82,104.90 C71.29,104.15 74.93,101.72 77.89,99.52 C79.58,98.26 81.32,97.01 83.12,95.78 C83.53,95.74 85.00,95.00 86.75,93.96 C93.35,90.03 98.87,87.00 99.44,87.00 C101.61,87.00 98.95,89.68 93.03,93.48 C85.53,98.29 78.00,104.65 78.00,106.18 C78.00,106.74 79.91,106.84 82.69,106.42 C87.24,105.74 98.38,100.39 106.50,94.99 C113.25,90.50 137.05,78.33 145.50,75.05 C149.90,73.34 154.40,71.51 155.50,70.99 C162.91,67.49 193.56,60.77 215.00,57.95 C240.06,54.65 277.38,55.68 294.14,60.13 C298.33,61.24 303.51,61.98 305.64,61.76 C308.81,61.43 310.28,61.95 313.89,64.68 C316.31,66.51 319.99,68.46 322.06,69.02 C324.14,69.58 329.33,72.54 333.59,75.60 C340.57,80.60 341.60,81.05 343.83,80.03 C347.03,78.57 348.60,80.00 347.03,82.95 C346.02,84.83 346.33,85.62 349.41,89.03 C353.17,93.19 357.90,102.44 362.96,115.51 C365.55,122.23 367.87,134.79 367.98,142.75 C367.99,143.16 368.10,143.53 368.27,143.76 C368.05,148.44 367.67,152.67 367.13,155.50 C361.73,183.47 342.03,223.03 319.32,251.50 C303.76,271.01 268.49,303.75 256.18,310.12 C254.72,310.88 250.17,313.70 246.08,316.38 C241.91,319.12 236.38,322.29 230.24,325.55 C242.48,318.85 254.27,311.42 254.84,309.89 C255.02,309.39 257.06,307.68 259.35,306.10 C275.21,295.19 307.85,264.70 310.66,258.16 C311.45,256.33 314.71,252.25 317.91,249.09 C324.72,242.37 335.88,226.06 341.94,214.00 C347.16,203.61 347.33,203.20 350.02,194.50 C351.21,190.65 352.68,186.90 353.28,186.17 C354.76,184.38 354.69,175.29 353.19,173.79 C352.25,172.85 350.93,173.61 347.24,177.19 C342.44,181.85 337.33,185.00 334.60,185.00 C333.48,185.00 333.11,183.90 333.17,180.75 C333.28,174.14 331.89,167.00 330.48,167.00 C327.92,167.00 325.82,173.72 326.56,179.60 C327.21,184.81 327.39,185.09 329.85,184.81 C331.63,184.60 332.56,185.02 332.78,186.13 C333.20,188.26 330.40,191.00 327.81,191.00 C326.22,191.00 325.86,190.49 326.21,188.70 C326.55,186.92 326.17,186.37 324.49,186.23 C322.91,186.10 321.72,187.17 319.99,190.28 C314.73,199.74 302.20,217.15 293.20,227.50 C287.94,233.55 283.11,238.82 282.48,239.21 C281.84,239.60 277.42,243.75 272.65,248.43 C267.89,253.12 261.51,258.77 258.49,261.01 C255.47,263.24 253.00,265.42 253.00,265.87 C253.00,266.31 250.41,268.43 247.25,270.58 C244.09,272.73 240.91,275.27 240.19,276.24 C239.47,277.21 238.34,278.00 237.68,278.00 C237.02,278.00 234.23,279.51 231.49,281.36 C228.74,283.20 225.48,285.04 224.22,285.43 C222.97,285.83 219.82,287.99 217.22,290.24 C212.30,294.51 202.58,299.54 197.59,300.42 C196.00,300.70 193.51,302.05 192.07,303.44 C190.62,304.82 187.88,306.45 185.97,307.05 C184.06,307.66 178.45,309.86 173.50,311.95 C154.67,319.87 145.65,321.78 123.00,322.65 C104.68,323.35 90.90,321.73 81.75,317.80 L 76.88 315.70 L 74.19 317.71 C70.86,320.20 70.98,324.49 74.47,327.63 C75.78,328.81 77.75,331.54 78.85,333.71 C82.44,340.75 96.72,349.40 108.25,351.53 C110.31,351.91 112.00,352.60 112.00,353.06 C112.00,353.58 114.05,354.00 117.28,354.29 C116.18,354.22 115.09,354.14 114.00,354.05 C105.43,353.34 95.37,349.66 84.32,343.19 C76.30,338.50 72.59,334.53 68.42,326.17 C66.02,321.37 65.59,319.28 65.59,312.50 C65.58,301.47 69.32,295.27 78.22,291.55 C85.41,288.55 87.00,289.61 87.00,297.39 C87.00,304.30 93.03,310.94 101.80,313.71 C111.22,316.68 142.03,315.11 156.50,310.92 C210.81,295.20 265.24,254.07 300.07,202.44 C306.51,192.89 307.66,190.98 310.65,184.83 C311.90,182.26 313.39,179.88 313.96,179.52 C314.53,179.17 315.00,177.87 315.00,176.64 C315.00,175.41 315.41,173.97 315.91,173.45 C317.59,171.69 323.21,154.57 324.59,147.00 C326.26,137.88 326.41,122.94 324.88,118.07 C318.78,98.56 306.12,86.06 285.50,79.17 C273.74,75.24 267.32,74.55 243.00,74.58 C214.37,74.61 204.10,76.12 175.59,84.47 C154.22,90.74 125.35,105.59 105.00,120.78 C94.03,128.97 74.46,148.48 70.23,155.44 C67.08,160.64 66.60,162.26 66.54,167.96 C66.50,171.55 66.11,175.06 65.68,175.75 C65.19,176.52 62.63,177.00 59.07,177.00 C58.83,177.00 58.59,177.00 58.36,177.00 C62.46,176.97 63.95,176.57 64.39,175.42 C65.39,172.81 65.09,169.45 63.50,165.65 C62.67,163.68 62.00,160.84 62.00,159.35 C62.00,157.86 61.48,155.20 60.84,153.45 C59.98,151.05 59.97,149.90 60.83,148.87 C61.46,148.12 63.14,146.04 64.57,144.25 C66.01,142.46 67.76,141.00 68.47,141.00 C69.18,141.00 70.36,140.28 71.09,139.39 C72.21,138.04 72.19,137.60 70.94,136.64 C69.14,135.26 69.07,133.53 70.75,131.85 C71.44,131.16 72.00,129.98 72.00,129.23 C72.00,128.32 72.67,128.08 74.00,128.50 C75.10,128.85 76.03,128.77 76.08,128.32 C76.12,127.87 76.31,126.68 76.50,125.68 C77.03,122.90 75.08,118.25 73.19,117.77 C69.82,116.92 65.39,119.11 60.00,124.27 C50.39,133.48 44.60,140.99 43.34,145.91 C42.69,148.44 41.67,151.77 41.08,153.32 C38.48,160.11 41.10,167.51 47.88,172.50 C50.12,174.15 51.96,175.84 51.98,176.25 C51.99,176.59 53.77,176.87 56.18,176.97 C52.83,176.88 50.51,176.58 48.45,175.74 C48.38,175.45 47.85,174.93 46.97,174.35 ZM 147.08 189.50 C147.68,187.30 149.35,183.48 150.80,181.00 C152.26,178.52 153.34,176.16 153.22,175.75 C153.10,175.34 153.63,175.00 154.41,175.00 C156.23,175.00 160.90,169.45 162.71,165.14 C163.49,163.29 165.15,160.14 166.42,158.14 C167.68,156.14 172.90,146.62 178.02,137.00 C183.14,127.38 188.31,117.93 189.49,116.00 C193.04,110.24 193.12,109.29 190.34,105.99 C187.80,102.98 187.79,102.89 189.63,100.83 C190.66,99.67 192.85,98.13 194.50,97.40 C195.73,96.86 196.36,96.43 196.30,96.21 C198.03,96.01 200.51,96.00 204.48,96.00 C210.33,96.00 215.15,96.44 215.50,97.00 C215.84,97.55 216.84,98.00 217.71,98.00 C221.73,98.00 229.00,106.18 229.00,110.70 C229.00,111.69 226.68,116.32 223.86,121.00 C219.45,128.29 203.00,160.10 203.00,161.33 C203.00,161.56 200.57,166.87 197.59,173.13 C193.07,182.64 186.76,198.56 174.05,232.50 C173.02,235.25 171.73,239.07 171.19,241.00 C170.65,242.93 169.30,247.65 168.18,251.50 C165.15,261.96 163.24,271.63 162.57,279.85 C161.83,288.94 161.09,290.35 156.01,292.38 C150.94,294.41 146.17,294.34 138.50,292.13 C137.46,291.83 136.51,291.53 135.63,291.24 C142.04,293.04 150.40,292.77 156.00,290.14 C159.16,288.66 159.52,288.07 159.75,284.00 C160.22,275.32 162.18,263.58 165.03,252.40 C166.93,244.92 167.96,238.14 168.10,232.30 C168.21,227.46 168.88,220.80 169.58,217.50 C170.29,214.20 170.90,210.02 170.94,208.20 C170.97,206.39 171.70,203.55 172.55,201.90 C173.40,200.25 173.82,198.00 173.47,196.90 C173.12,195.80 173.37,194.26 174.02,193.48 C174.94,192.36 174.85,191.71 173.60,190.46 C172.72,189.58 172.00,188.19 172.00,187.37 C172.00,186.55 170.60,184.14 168.89,182.01 C166.59,179.15 165.31,178.32 163.98,178.82 C161.33,179.81 156.84,185.86 154.14,192.08 C152.84,195.06 151.38,198.28 150.89,199.23 C149.65,201.66 142.72,220.23 140.15,228.00 C129.99,258.72 127.00,268.33 126.97,270.26 C126.95,271.49 126.28,273.37 125.47,274.44 C123.69,276.79 123.75,280.13 125.25,283.24 C125.20,283.14 125.14,283.04 125.09,282.94 C122.98,279.20 122.88,278.37 123.86,272.68 C124.44,269.28 125.19,264.30 125.54,261.62 C125.88,258.94 126.52,255.79 126.97,254.62 C127.41,253.45 128.31,250.02 128.96,247.00 C130.50,239.88 133.09,231.01 139.01,212.50 C141.43,204.93 143.70,197.48 144.34,195.03 C144.24,195.69 144.42,195.72 144.93,195.00 C145.52,194.18 146.49,191.70 147.08,189.50 ZM 311.49 220.90 C312.21,216.43 315.56,211.94 321.21,207.88 C323.50,206.22 324.22,206.12 325.96,207.20 C328.70,208.92 328.53,210.78 325.15,216.05 C321.31,222.05 318.94,223.97 314.51,224.69 L 310.77 225.30 ZM 81.68 296.40 C82.01,295.52 81.69,294.42 80.95,293.97 C79.25,292.92 76.00,294.60 76.00,296.54 C76.00,298.56 80.89,298.44 81.68,296.40 ZM 321.41 217.72 C322.16,216.52 322.11,215.71 321.22,214.82 C319.56,213.16 316.45,216.13 317.36,218.51 C318.11,220.44 319.91,220.09 321.41,217.72 ZM 285.75 52.31 C282.80,51.54 283.81,50.00 287.25,50.02 C291.69,50.04 293.96,51.51 290.83,52.35 C289.55,52.69 288.27,52.93 288.00,52.87 C287.73,52.81 286.71,52.56 285.75,52.31 ZM 309.00 58.56 C309.00,57.77 309.36,56.90 309.80,56.62 C311.08,55.83 313.32,57.67 312.57,58.89 C311.58,60.49 309.00,60.26 309.00,58.56 ZM 368.29 126.08 C367.81,120.67 366.99,115.69 365.81,110.99 C366.27,112.49 366.71,114.00 367.13,115.50 C367.70,117.58 368.09,121.46 368.29,126.08 ZM 96.96 87.20 C104.05,83.20 111.85,79.32 120.50,75.50 C122.70,74.53 126.30,72.92 128.50,71.93 C126.30,72.92 122.70,74.53 120.50,75.50 C113.70,78.51 104.53,83.13 96.96,87.20 ZM 182.80 110.18 C186.22,104.40 188.95,100.49 190.75,98.92 C191.12,98.59 191.45,98.30 191.77,98.04 C189.34,100.22 186.39,104.20 182.80,110.18 ZM 205.87 337.45 C195.96,341.89 186.83,345.49 181.12,347.01 C186.01,345.71 195.87,341.84 205.87,337.45 ZM 145.06 192.45 C147.11,186.03 153.40,170.56 159.60,156.50 C153.34,170.72 147.14,186.04 145.06,192.45 ZM 149.29 353.97 C143.90,354.57 137.46,354.85 130.67,354.80 C137.14,354.81 144.08,354.55 149.29,353.97 ZM 339.36 70.89 C347.30,77.09 353.78,84.05 357.72,90.96 C353.73,84.02 347.26,77.07 339.36,70.89 ZM 50.89 122.55 C48.03,125.60 45.59,128.38 44.24,130.21 C45.62,128.33 48.05,125.57 50.89,122.55 Z" fill="rgb(245,49,131)"/>
<path d="M 0.00 200.00 L 0.00 0.00 L 200.00 0.00 L 400.00 0.00 L 400.00 200.00 L 400.00 400.00 L 200.00 400.00 L 0.00 400.00 L 0.00 200.00 ZM 149.29 353.97 C157.28,353.08 162.76,351.88 181.12,347.01 C195.24,343.26 230.36,326.70 246.08,316.38 C250.17,313.70 254.72,310.88 256.18,310.12 C268.49,303.75 303.76,271.01 319.32,251.50 C342.03,223.03 361.73,183.47 367.13,155.50 C368.92,146.21 368.92,122.02 367.13,115.50 C364.55,106.12 360.87,96.52 357.74,91.00 C348.71,75.09 326.14,58.95 303.50,52.20 C287.09,47.31 280.81,46.59 254.50,46.60 C240.16,46.60 226.09,47.12 221.50,47.81 C217.10,48.47 207.89,49.72 201.03,50.59 C194.17,51.45 188.24,52.35 187.85,52.59 C187.47,52.83 184.76,53.47 181.83,54.02 C170.30,56.17 143.35,65.22 128.50,71.93 C126.30,72.92 122.70,74.53 120.50,75.50 C103.29,83.11 89.42,90.93 77.89,99.52 C74.93,101.72 71.29,104.15 69.82,104.90 C66.15,106.77 48.95,123.80 44.21,130.25 C37.36,139.58 34.55,146.56 34.15,155.24 L 33.79 162.97 L 40.14 169.32 C47.02,176.18 49.03,177.00 59.07,177.00 C62.63,177.00 65.19,176.52 65.68,175.75 C66.11,175.06 66.50,171.55 66.54,167.96 C66.60,162.26 67.08,160.64 70.23,155.44 C74.46,148.48 94.03,128.97 105.00,120.78 C125.35,105.59 154.22,90.74 175.59,84.47 C204.10,76.12 214.37,74.61 243.00,74.58 C267.32,74.55 273.74,75.24 285.50,79.17 C306.12,86.06 318.78,98.56 324.88,118.07 C326.41,122.94 326.26,137.88 324.59,147.00 C323.21,154.57 317.59,171.69 315.91,173.45 C315.41,173.97 315.00,175.41 315.00,176.64 C315.00,177.87 314.53,179.17 313.96,179.52 C313.39,179.88 311.90,182.26 310.65,184.83 C307.66,190.98 306.51,192.89 300.07,202.44 C265.24,254.07 210.81,295.20 156.50,310.92 C142.03,315.11 111.22,316.68 101.80,313.71 C93.03,310.94 87.00,304.30 87.00,297.39 C87.00,289.61 85.41,288.55 78.22,291.55 C69.32,295.27 65.58,301.47 65.59,312.50 C65.59,319.28 66.02,321.37 68.42,326.17 C72.59,334.53 76.30,338.50 84.32,343.19 C95.37,349.66 105.43,353.34 114.00,354.05 C126.51,355.08 139.58,355.06 149.29,353.97 ZM 156.01 292.38 C161.09,290.35 161.83,288.94 162.57,279.85 C163.24,271.63 165.15,261.96 168.18,251.50 C169.30,247.65 170.65,242.93 171.19,241.00 C171.73,239.07 173.02,235.25 174.05,232.50 C186.76,198.56 193.07,182.64 197.59,173.13 C200.57,166.87 203.00,161.56 203.00,161.33 C203.00,160.10 219.45,128.29 223.86,121.00 C226.68,116.32 229.00,111.69 229.00,110.70 C229.00,106.18 221.73,98.00 217.71,98.00 C216.84,98.00 215.84,97.55 215.50,97.00 C215.15,96.44 210.33,96.00 204.48,96.00 C194.41,96.00 193.96,96.09 190.75,98.92 C186.61,102.55 177.49,118.53 166.51,141.38 C158.20,158.70 145.77,188.66 144.47,194.50 C144.11,196.15 141.65,204.25 139.01,212.50 C133.09,231.01 130.50,239.88 128.96,247.00 C128.31,250.02 127.41,253.45 126.97,254.62 C126.52,255.79 125.88,258.94 125.54,261.62 C125.19,264.30 124.44,269.28 123.86,272.68 C122.88,278.37 122.98,279.20 125.09,282.94 C127.90,287.94 130.75,289.89 138.50,292.13 C146.17,294.34 150.94,294.41 156.01,292.38 ZM 107.22 88.75 C107.68,87.24 123.34,79.03 126.35,78.72 C131.12,78.23 128.07,81.55 120.00,85.62 C111.48,89.92 106.48,91.14 107.22,88.75 Z" fill="rgb(254,254,254)"/>
</g>
</svg>